<svg height="32"
	viewBox="0 0 32 32"
	width="32"
	xmlns="http://www.w3.org/2000/svg">
	<g
		fill="none"
		fill-rule="evenodd">
		<circle
			cx="16"
			cy="16"
			fill="#3FBADF"
			r="16" />
		<g
			fill="#FFF"
			fill-rule="nonzero">
			<path
				d="M11 22.119l5-2.82v5.635l-5-2.815zm0-9l5-2.82v5.635l-5-2.815z"
				fill-opacity=".4" />
			<path
				d="M26 19.23l-5 2.886V16.43l5 2.8zm0-9l-5 2.886V7.43l5 2.8z"
				fill-opacity=".7" />
			<path
				d="M11 22.116v-5.683l5 2.87-5 2.813zm0-9V7.433l5 2.87-5 2.813z"
				fill-opacity=".8" />
			<path d="M21 22.116l-5-2.812 5-2.874v5.686zm0-9l-5-2.812 5-2.874v5.686z" />
			<path
				d="M21 22.116l-5 2.818v-5.63l5 2.812zm0-9l-5 2.818v-5.63l5 2.812z"
				fill-opacity=".6" />
			<path
				d="M11 16.433v5.683l-5-2.885 5-2.798zm0-9v5.683l-5-2.885 5-2.798z"
				fill-opacity=".5" />
		</g>
	</g>
</svg>
