<?xml version="1.0" encoding="utf-8"?><!-- Generator: Adobe Illustrator 16.0.0, SVG Export Plug-In . SVG Version: 6.00 Build 0)  -->
<!DOCTYPE svg PUBLIC "-//W3C//DTD SVG 1.1//EN" "http://www.w3.org/Graphics/SVG/1.1/DTD/svg11.dtd">
<svg enable-background="new 0 0 250 250" height="250px" id="Layer_1" version="1.1" viewBox="0 0 250 250" width="250px"
	x="0px" xmlns="http://www.w3.org/2000/svg" y="0px" xml:space="preserve">
<path d="M124.878,114.458c-5.637,0-10.219,4.584-10.219,10.217c0,5.632,4.584,10.216,10.219,10.216
	c5.631,0,10.22-4.584,10.22-10.216C135.098,119.042,130.514,114.458,124.878,114.458" fill="#3F43AD" id="Fill-2" />
	<path d="M172.121,86.109c-5.637,0-10.215,4.584-10.215,10.217c0,5.635,4.58,10.216,10.215,10.216
	c5.631,0,10.22-4.583,10.22-10.216C182.344,90.694,177.755,86.109,172.121,86.109" fill="#3F43AD" id="Fill-3" />
	<path d="M219.363,57.765c-5.631,0-10.215,4.582-10.215,10.215c0,5.635,4.584,10.223,10.215,10.223
	c5.637,0,10.218-4.586,10.218-10.223C229.581,62.347,225,57.765,219.363,57.765" fill="#3F43AD" id="Fill-4" />
	<g id="Group-8" transform="translate(24.000000, 0.000000)">
	<path d="M53.63,29.416c-5.633,0-10.217,4.585-10.217,10.22c0,5.632,4.584,10.215,10.217,10.215
		c5.635,0,10.219-4.583,10.219-10.215C63.849,34.001,59.267,29.416,53.63,29.416" fill="#3F43AD" id="Fill-5" />
		<path d="M100.878,1.069c-5.637,0-10.219,4.587-10.219,10.219c0,5.635,4.584,10.219,10.219,10.219
		c5.631,0,10.22-4.584,10.22-10.219C111.098,5.656,106.514,1.069,100.878,1.069" fill="#3F43AD" id="Fill-7" />
</g>
	<path d="M124.878,57.765c-5.637,0-10.219,4.582-10.219,10.215c0,5.635,4.584,10.223,10.219,10.223
	c5.631,0,10.22-4.586,10.22-10.223C135.098,62.347,130.514,57.765,124.878,57.765" fill="#3F43AD" id="Fill-9" />
	<path d="M172.121,29.416c-5.637,0-10.215,4.585-10.215,10.22c0,5.632,4.58,10.215,10.215,10.215
	c5.631,0,10.22-4.583,10.22-10.215C182.344,34.001,177.755,29.416,172.121,29.416" fill="#3F43AD" id="Fill-10" />
	<path d="M172.121,142.807c-5.637,0-10.215,4.582-10.215,10.213c0,5.635,4.58,10.217,10.215,10.217
	c5.631,0,10.22-4.582,10.22-10.217C182.344,147.389,177.755,142.807,172.121,142.807" fill="#3F43AD" id="Fill-11" />
	<path d="M219.363,114.458c-5.631,0-10.215,4.584-10.215,10.217c0,5.632,4.584,10.216,10.215,10.216
	c5.637,0,10.218-4.584,10.218-10.216C229.581,119.042,225,114.458,219.363,114.458" fill="#3F43AD" id="Fill-12" />
	<path d="M172.121,199.497c-5.637,0-10.215,4.582-10.215,10.218c0,5.633,4.58,10.215,10.215,10.215
	c5.631,0,10.22-4.582,10.22-10.215C182.344,204.079,177.755,199.497,172.121,199.497" fill="#3F43AD" id="Fill-13" />
	<path d="M219.363,171.15c-5.631,0-10.215,4.582-10.215,10.217c0,5.634,4.584,10.216,10.215,10.216
	c5.637,0,10.218-4.582,10.218-10.216C229.581,175.732,225,171.15,219.363,171.15" fill="#3F43AD" id="Fill-14" />
	<path d="M124.878,227.844c-5.637,0-10.219,4.586-10.219,10.219c0,5.629,4.584,10.215,10.219,10.215
	c5.631,0,10.22-4.586,10.22-10.215C135.098,232.43,130.514,227.844,124.878,227.844" fill="#3F43AD" id="Fill-15" />
	<path d="M124.878,171.15c-5.637,0-10.219,4.582-10.219,10.217c0,5.634,4.584,10.216,10.219,10.216
	c5.631,0,10.22-4.582,10.22-10.216C135.098,175.732,130.514,171.15,124.878,171.15" fill="#3F43AD" id="Fill-16" />
	<path d="M77.63,86.109c-5.633,0-10.217,4.584-10.217,10.217c0,5.635,4.584,10.216,10.217,10.216
	c5.635,0,10.219-4.583,10.219-10.216C87.849,90.694,83.267,86.109,77.63,86.109" fill="#3F43AD" id="Fill-17" />
	<path d="M77.63,199.497c-5.633,0-10.217,4.582-10.217,10.218c0,5.633,4.584,10.215,10.217,10.215
	c5.635,0,10.219-4.582,10.219-10.215C87.849,204.079,83.267,199.497,77.63,199.497" fill="#3F43AD" id="Fill-18" />
	<g id="Group-24" transform="translate(0.000000, 29.000000)">
	<path d="M77.63,113.807c-5.633,0-10.217,4.582-10.217,10.213c0,5.635,4.584,10.217,10.217,10.217
		c5.635,0,10.219-4.582,10.219-10.217C87.849,118.389,83.267,113.807,77.63,113.807" fill="#3F43AD" id="Fill-19" />
		<path d="M30.387,28.765c-5.634,0-10.215,4.582-10.215,10.215c0,5.635,4.583,10.223,10.215,10.223
		c5.633,0,10.219-4.586,10.219-10.223C40.606,33.347,36.02,28.765,30.387,28.765" fill="#3F43AD" id="Fill-21" />
		<path d="M30.387,142.15c-5.634,0-10.215,4.582-10.215,10.217c0,5.634,4.583,10.216,10.215,10.216
		c5.633,0,10.219-4.582,10.219-10.216C40.606,146.732,36.02,142.15,30.387,142.15" fill="#3F43AD" id="Fill-22" />
		<path d="M30.387,85.458c-5.634,0-10.215,4.584-10.215,10.217c0,5.632,4.583,10.216,10.215,10.216
		c5.633,0,10.219-4.584,10.219-10.216C40.606,90.042,36.02,85.458,30.387,85.458" fill="#3F43AD" id="Fill-23" />
</g>
</svg>
