<?xml version="1.0" encoding="UTF-8"?>
<svg height="208px" version="1.1" viewBox="0 0 242 208" width="242px"
	xmlns="http://www.w3.org/2000/svg">
	<!-- Generator: Sketch 52.5 (67469) - http://www.bohemiancoding.com/sketch -->
	<title>logo</title>
	<desc>Created with Sketch.</desc>
	<defs>
		<linearGradient id="linearGradient-1" x1="0%" x2="69.9236976%" y1="50%" y2="50%">
			<stop offset="0%" stop-color="#FFFFFF" stop-opacity="0"></stop>
			<stop offset="100%" stop-color="#FFFFFF"></stop>
		</linearGradient>
		<linearGradient id="linearGradient-2" x1="96.8343132%" x2="32.0565226%" y1="31.5784192%"
			y2="34.8028938%">
			<stop offset="0%" stop-color="#FD76FD" stop-opacity="0"></stop>
			<stop offset="100%" stop-color="#FF51FF"></stop>
		</linearGradient>
		<linearGradient id="linearGradient-3" x1="95.9480128%" x2="45.0288776%" y1="44.4307516%"
			y2="44.4307516%">
			<stop offset="0%" stop-color="#5300FF" stop-opacity="0"></stop>
			<stop offset="100%" stop-color="#9D6EFF"></stop>
		</linearGradient>
		<linearGradient id="linearGradient-4" x1="96.9658805%" x2="44.1485367%" y1="35.4091113%"
			y2="42.3121076%">
			<stop offset="0%" stop-color="#AE60D6" stop-opacity="0"></stop>
			<stop offset="100%" stop-color="#AB38E6"></stop>
		</linearGradient>
	</defs>
	<g fill="none" fill-rule="evenodd" id="atomic" stroke="none" stroke-width="1">
		<g id="creating-wallet" transform="translate(-391.000000, -140.000000)">
			<g id="Group-2" transform="translate(391.000000, 140.000000)">
				<g id="logo-2">
					<polygon fill="#0B76FF" id="Combined-Shape"
						points="121.003111 139.120816 171.009129 139.120816 121.018638 52.4962076 121.012778 52.5063618 121.018638 0 219 167 121 167"></polygon>
					<polygon fill="#24C1FF" id="Combined-Shape"
						points="23.0031114 139.120816 73.0091287 139.120816 23.0186378 52.4962076 23.0127779 52.5063618 23.0186378 0 121 167 23 167"
						transform="translate(72.000000, 83.500000) scale(-1, 1) translate(-72.000000, -83.500000) "></polygon>
					<path
						d="M51,207.822034 L51,187.177966 C52.1744461,187.118644 55.0955044,187 57.3841686,187 C62.4132071,187 64.4609593,189.283898 64.4609593,192.161017 C64.4609593,194.326271 63.6177673,195.779661 62.0518391,196.788136 L62.0518391,196.847458 C63.5876533,197.411017 65.0632394,198.923729 65.0632394,201.59322 C65.0632394,205.95339 61.6302431,208 57.0529146,208 C55.0352764,208 52.2346741,207.940678 51,207.822034 Z M57.6853087,199.487288 L55.8182405,199.487288 L55.8182405,203.372881 C56.1494945,203.461864 56.5409766,203.550847 57.4443966,203.550847 C59.3114648,203.550847 60.2449989,202.75 60.2449989,201.355932 C60.2449989,200.050847 59.2512368,199.487288 57.6853087,199.487288 Z M57.3239406,191.449153 C56.7216606,191.449153 56.3602925,191.508475 55.8182405,191.567797 L55.8182405,195.334746 L57.4142826,195.334746 C58.6489568,195.334746 59.6427189,194.830508 59.6427189,193.317797 C59.6427189,192.072034 58.4983867,191.449153 57.3239406,191.449153 Z M89.6563419,207.881356 L89.6563419,187.118644 L102.153653,187.118644 L102.153653,191.567797 L94.4745823,191.567797 L94.4745823,195.216102 L101.250233,195.216102 L101.250233,199.665254 L94.4745823,199.665254 L94.4745823,203.432203 L102.454793,203.432203 L102.454793,207.881356 L89.6563419,207.881356 Z M124.337635,207.881356 L133.10081,187.118644 L137.407113,187.118644 L146.170288,207.881356 L141.020793,207.881356 L139.274181,203.521186 L130.932602,203.521186 L129.18599,207.881356 L124.337635,207.881356 Z M135.118448,193.199153 L132.739442,199.072034 L137.467341,199.072034 L135.118448,193.199153 Z M168.95655,207.881356 L168.95655,187.118644 L173.804904,187.118644 L180.309529,195.868644 L186.452786,187.118644 L191,187.118644 L191,207.881356 L186.18176,207.881356 L186.18176,194.652542 L180.309529,202.75 L179.616907,202.75 L173.77479,194.741525 L173.77479,207.881356 L168.95655,207.881356 Z"
						fill="#25C1FF" fill-rule="nonzero" id="BEAM"></path>
					<polygon fill="#39FFF2" id="Triangle-5"
						points="121 74 121 128.939482 90 129"></polygon>
					<polygon fill="#00E2C2" id="Triangle-5"
						points="152 74 152 128.939482 121 129"
						transform="translate(136.500000, 101.500000) scale(-1, 1) translate(-136.500000, -101.500000) "></polygon>
					<polygon fill="url(#linearGradient-1)" id="Rectangle-5"
						points="0 57 121 107 121 114 0 84"></polygon>
					<polygon fill="url(#linearGradient-2)" id="Rectangle-5"
						points="242 36.032052 121 107 121 108.92104 242 59"></polygon>
					<polygon fill="url(#linearGradient-3)" id="Rectangle-5"
						points="241.906323 90.9887517 121 82 121 83.9887517 241.906323 113.988752"
						transform="translate(181.453161, 97.994376) scale(-1, 1) rotate(-180.000000) translate(-181.453161, -97.994376) "></polygon>
					<polygon fill="url(#linearGradient-4)" id="Rectangle-5"
						points="242 59.96331 121 109.037861 121 112 242 81"></polygon>
				</g>
			</g>
		</g>
	</g>
</svg>
