<?xml version="1.0" encoding="UTF-8"?>
<svg height="116px" version="1.1" viewBox="0 0 115 116" width="115px"
	xmlns="http://www.w3.org/2000/svg">
	<!-- Generator: Sketch 44 (41411) - http://www.bohemiancoding.com/sketch -->
	<title>logo-gray_head</title>
	<desc>Created with Sketch.</desc>
	<defs></defs>
	<g fill="none" fill-rule="evenodd" id="Page-1" stroke="none" stroke-width="1">
		<g id="DCS-v5.0.0" transform="translate(-743.000000, -300.000000)">
			<g id="logo-gray_head" transform="translate(742.000000, 300.000000)">
				<g id="Group-6-Copy-4">
					<g style="mix-blend-mode: luminosity;" id="Group-4">
						<rect fill="#FBBA00" height="80.5467132"
							id="Rectangle-20"
							transform="translate(57.785367, 58.431820) rotate(-315.000000) translate(-57.785367, -58.431820) " width="80.1715458" x="17.699594"
							y="18.1584636"></rect>
						<polygon fill="#F7A600" id="Rectangle-20-Copy"
							points="17.699594 18.1584636 97.8711399 18.1584636 72.5897214 73.3054525 17.699594 98.7051768"
							transform="translate(57.785367, 58.431820) rotate(-315.000000) translate(-57.785367, -58.431820) "></polygon>
						<path
							d="M18.6427887,53.4619928 L44.9185341,53.4619928 L57.8249158,40.5421129 L70.6207287,53.3513083 C70.6207287,53.3513083 98.1589043,54.1635086 96.5453076,53.3513083 C94.9317109,52.539108 57.3032414,14.0682008 57.3032414,14.0682008 L18.6427887,53.4619928 Z"
							fill="#FEFFFE" id="Path-1"></path>
						<polygon style="mix-blend-mode: multiply;" fill="#0A122A" id="Rectangle-1-Copy-2"
							opacity="0.286333955"
							points="57.3137696 0.538870116 115.163042 56.6506321 59.5536123 114.751592"
							transform="translate(86.238406, 57.645231) rotate(1.000000) translate(-86.238406, -57.645231) "></polygon>
					</g>
				</g>
			</g>
		</g>
	</g>
</svg>
