<svg height="32" viewBox="1 0 26 26" width="32" xmlns="http://www.w3.org/2000/svg">
	<defs>
		<filter id="brightness">
			<feComponentTransfer>
				<feFuncR intercept="0.1" slope="1" type="linear" />
				<feFuncG intercept="0.1" slope="1.3" type="linear" />
				<feFuncB intercept="0.1" slope="1.1" type="linear" />
			</feComponentTransfer>
		</filter>
	</defs>
	<g>
		<path d="M1,13c0,7.18 5.82,13 13,13c7.18,0 13,-5.82 13,-13c0,-7.18 -5.82,-13 -13,-13c-7.18,0 -13,5.82 -13,13z" fill="currentColor"
			filter="url(#brightness)" />
		<path d="M4.25,13c0,5.38 4.37,9.75 9.75,9.75c5.38,0 9.75,-4.37 9.75,-9.75c0,-5.38 -4.37,-9.75 -9.75,-9.75c-5.38,0 -9.75,4.37 -9.75,9.75z"
			fill="currentColor" />
		<path d="M10.76,13l3.24,4.87l3.24,-4.87l-3.24,-4.87z" fill="currentColor"
			filter="url(#brightness)" />
	</g>
</svg>
