<svg xmlns:xlink="http://www.w3.org/1999/xlink" height="32" viewBox="0 0 32 32" width="32"
	xmlns="http://www.w3.org/2000/svg">
	<defs>
		<linearGradient id="c" x1="50%" x2="50%" y1="0%" y2="100%">
			<stop offset="0%" stop-color="#FFF" stop-opacity=".5" />
			<stop offset="100%" stop-opacity=".5" />
		</linearGradient>
		<filter filterUnits="objectBoundingBox" height="111.7%" id="a" width="111.7%" x="-5.8%"
			y="-4.2%">
			<feOffset dy=".5" in="SourceAlpha" result="shadowOffsetOuter1" />
			<feGaussianBlur in="shadowOffsetOuter1" result="shadowBlurOuter1" stdDeviation=".5" />
			<feComposite in="shadowBlurOuter1" in2="SourceAlpha" operator="out"
				result="shadowBlurOuter1" />
			<feColorMatrix in="shadowBlurOuter1"
				values="0 0 0 0 0 0 0 0 0 0 0 0 0 0 0 0 0 0 0.199473505 0" />
		</filter>
		<circle cx="15" cy="15" id="b" r="15" />
	</defs>
	<g fill="none" fill-rule="evenodd">
		<g fill-rule="nonzero" transform="translate(1)">
			<use fill="#000" filter="url(#a)" xlink:href="#b" />
			<use fill="#FEC807" xlink:href="#b" />
			<use style="mix-blend-mode:soft-light" fill="url(#c)" xlink:href="#b" />
			<circle cx="15" cy="15" r="14.5" stroke="#000" stroke-linejoin="square"
				stroke-opacity=".097" />
		</g>
		<path
			d="M25.212 16.012h-4.704l-.84-2.52h5.536a.714.714 0 000-1.428h-5.99l-2.402-7.325a1.025 1.025 0 00-2.024-.067L9.042 22.144a.899.899 0 000 .285.966.966 0 001.898.235l4.822-14.7 1.378 4.1h-1.193a.714.714 0 100 1.428h1.68l.84 2.52h-2.52a.714.714 0 000 1.428h3.015l1.361 4.032h-7.215a1.008 1.008 0 000 2.016h8.534a.958.958 0 00.958-.958.983.983 0 00-.093-.42l-1.537-4.67h4.2a.714.714 0 000-1.428h.042z"
			fill="#FFF" />
	</g>
</svg>
