<svg xmlns:xlink="http://www.w3.org/1999/xlink" height="32" viewBox="0 0 32 32" width="32"
	xmlns="http://www.w3.org/2000/svg">
	<defs>
		<linearGradient id="c" x1="50%" x2="50%" y1="0%" y2="100%">
			<stop offset="0%" stop-color="#FFF" stop-opacity=".5" />
			<stop offset="100%" stop-opacity=".5" />
		</linearGradient>
		<filter filterUnits="objectBoundingBox" height="111.7%" id="a" width="111.7%" x="-5.8%"
			y="-4.2%">
			<feOffset dy=".5" in="SourceAlpha" result="shadowOffsetOuter1" />
			<feGaussianBlur in="shadowOffsetOuter1" result="shadowBlurOuter1" stdDeviation=".5" />
			<feComposite in="shadowBlurOuter1" in2="SourceAlpha" operator="out"
				result="shadowBlurOuter1" />
			<feColorMatrix in="shadowBlurOuter1"
				values="0 0 0 0 0 0 0 0 0 0 0 0 0 0 0 0 0 0 0.199473505 0" />
		</filter>
		<circle cx="15" cy="15" id="b" r="15" />
	</defs>
	<g fill="none">
		<g transform="translate(1)">
			<use fill="#000" filter="url(#a)" xlink:href="#b" />
			<use fill="#A71435" xlink:href="#b" />
			<use style="mix-blend-mode:soft-light" fill="url(#c)" xlink:href="#b" />
			<circle cx="15" cy="15" r="14.5" stroke="#000" stroke-linejoin="square"
				stroke-opacity=".097" />
		</g>
		<g fill="#FFF">
			<path
				d="M11.192 5.142a10.942 10.942 0 0113.122 16.977c-.545-1.188-.963-2.434-1.43-3.66L20.06 11.06c-.272-.75-.73-1.47-1.44-1.859a5.568 5.568 0 00-3.203-.496c-.876.097-1.791.399-2.385 1.09-.565.652-.818 1.49-1.139 2.278l-2.035 5.16c-.68 1.635-1.255 3.328-1.995 4.954a10.104 10.104 0 01-2.288-4.04 10.951 10.951 0 015.627-13.015l-.01.01z" />
			<path
				d="M15.261 12.598c.195-.584.974-.778 1.48-.447.272.204.37.555.496.866 1.266 3.31 2.512 6.639 3.768 9.958.165.477.408.935.506 1.431-.08.085-.172.157-.273.215a10.97 10.97 0 01-9.014.603c-.545-.224-1.11-.418-1.587-.76.049-.447.273-.846.438-1.255 1.402-3.534 2.775-7.077 4.186-10.61z" />
		</g>
	</g>
</svg>
