<svg xmlns:xlink="http://www.w3.org/1999/xlink" height="32" viewBox="0 0 32 32"
	width="32" xmlns="http://www.w3.org/2000/svg">
	<defs>
		<filter filterUnits="objectBoundingBox" height="111.7%" id="a" width="111.7%" x="-5.8%"
			y="-4.2%">
			<feOffset dy=".5" in="SourceAlpha" result="shadowOffsetOuter1" />
			<feGaussianBlur in="shadowOffsetOuter1" result="shadowBlurOuter1" stdDeviation=".5" />
			<feComposite in="shadowBlurOuter1" in2="SourceAlpha" operator="out"
				result="shadowBlurOuter1" />
			<feColorMatrix in="shadowBlurOuter1"
				values="0 0 0 0 0 0 0 0 0 0 0 0 0 0 0 0 0 0 0.199473505 0" />
		</filter>
		<filter filterUnits="objectBoundingBox" height="119.4%" id="d" width="120.6%" x="-10.3%"
			y="-6.9%">
			<feOffset dy=".5" in="SourceAlpha" result="shadowOffsetOuter1" />
			<feGaussianBlur in="shadowOffsetOuter1" result="shadowBlurOuter1" stdDeviation=".5" />
			<feColorMatrix in="shadowBlurOuter1"
				values="0 0 0 0 0 0 0 0 0 0 0 0 0 0 0 0 0 0 0.204257246 0" />
		</filter>
		<linearGradient id="c" x1="50%" x2="50%" y1="0%" y2="100%">
			<stop offset="0%" stop-color="#FFF" stop-opacity=".5" />
			<stop offset="100%" stop-opacity=".5" />
		</linearGradient>
		<circle cx="16" cy="15" id="b" r="15" />
		<path d="M23.917 20.11a.848.848 0 00.57-.86v1.1a.91.91 0 01-.595.86l-7.588 2.733a.806.806 0 01-.596 0L8.12 21.211a.9.9 0 01-.595-.86v-1.1c0 .379.235.733.595.86l7.613 2.732a.806.806 0 00.595 0l7.589-2.733zm0-1.948a.867.867 0 00.57-.86v1.1a.91.91 0 01-.595.86l-7.588 2.733a.806.806 0 01-.596 0L8.12 19.263a.9.9 0 01-.595-.86V17.29c0 .392.235.733.595.872l7.613 2.733a.806.806 0 00.595 0l7.589-2.733zm0-1.96a.88.88 0 00.583-.848v1.1a.91.91 0 01-.596.86l-7.588 2.733a.806.806 0 01-.595 0L8.12 17.302a.9.9 0 01-.595-.86v-1.1c0 .379.235.733.595.86l7.613 2.732a.806.806 0 00.595 0l7.589-2.732zM7.5 9.662a.9.9 0 01.595-.86l7.601-2.745a.806.806 0 01.595 0l7.601 2.745a.9.9 0 01.595.86v4.832a.91.91 0 01-.595.86l-7.613 2.732a.806.806 0 01-.595 0l-7.589-2.732a.9.9 0 01-.595-.86V9.662z"
			id="e" />
	</defs>
	<g fill="none">
		<use fill="#000" filter="url(#a)" xlink:href="#b" />
		<use fill="#343434" fill-rule="evenodd" xlink:href="#b" />
		<use style="mix-blend-mode:soft-light" fill="url(#c)" fill-rule="evenodd" xlink:href="#b" />
		<circle cx="16" cy="15" r="14.5" stroke="#000" stroke-opacity=".097" />
		<use fill="#000" filter="url(#d)" xlink:href="#e" />
		<use fill="#FFF" fill-rule="evenodd" xlink:href="#e" />
	</g>
</svg>
