<svg xmlns:xlink="http://www.w3.org/1999/xlink" height="32" viewBox="0 0 32 32" width="32"
	xmlns="http://www.w3.org/2000/svg">
	<defs>
		<linearGradient id="c" x1="50%" x2="50%" y1="0%" y2="100%">
			<stop offset="0%" stop-color="#FFF" stop-opacity=".5" />
			<stop offset="100%" stop-opacity=".5" />
		</linearGradient>
		<filter filterUnits="objectBoundingBox" height="111.7%" id="a" width="111.7%" x="-5.8%"
			y="-4.2%">
			<feOffset dy=".5" in="SourceAlpha" result="shadowOffsetOuter1" />
			<feGaussianBlur in="shadowOffsetOuter1" result="shadowBlurOuter1" stdDeviation=".5" />
			<feComposite in="shadowBlurOuter1" in2="SourceAlpha" operator="out"
				result="shadowBlurOuter1" />
			<feColorMatrix in="shadowBlurOuter1"
				values="0 0 0 0 0 0 0 0 0 0 0 0 0 0 0 0 0 0 0.199473505 0" />
		</filter>
		<circle cx="15" cy="15" id="b" r="15" />
	</defs>
	<g fill="none">
		<g transform="translate(1)">
			<use fill="#000" filter="url(#a)" xlink:href="#b" />
			<use fill="#F19F13" xlink:href="#b" />
			<use style="mix-blend-mode:soft-light" fill="url(#c)" xlink:href="#b" />
			<circle cx="15" cy="15" r="14.5" stroke="#000" stroke-linejoin="square"
				stroke-opacity=".097" />
		</g>
		<path
			d="M22.77 12.95h4.87l.36-2h-4.71a4.78 4.78 0 00-2.59.86c-.28-1-3-.86-3-.86l.36-2H17l-.36 2h-1.11l.31-2h-1.15l-.42 2h-1.19l-.61 3.12-.81-3.06H9l-5 7.35h4.12l.42-1.95H7.7l2.4-3.51.9 3.53h-.9l-.39 1.93h3.06l-.25 1.34h1.2l.28-1.34h1l-.25 1.34H16l.25-1.34h1.56a3 3 0 001.87-.95 3.2 3.2 0 002.2.95h4.71l.31-1.95h-4.23c-2.91-.05-1.67-3.48.1-3.46zm-5.29 3.41h-3.12l.25-.95h3c.76.05.51.95-.13.95zm.47-2.56h-3.12l.25-.95h3c.76.05.48.99-.13.99v-.04z"
			fill="#FFF" />
	</g>
</svg>
