<svg xmlns:xlink="http://www.w3.org/1999/xlink" height="32" viewBox="0 0 32 32" width="32"
	xmlns="http://www.w3.org/2000/svg">
	<defs>
		<linearGradient id="c" x1="50%" x2="50%" y1="0%" y2="100%">
			<stop offset="0%" stop-color="#FFF" stop-opacity=".5" />
			<stop offset="100%" stop-opacity=".5" />
		</linearGradient>
		<filter filterUnits="objectBoundingBox" height="111.7%" id="a" width="111.7%" x="-5.8%"
			y="-4.2%">
			<feOffset dy=".5" in="SourceAlpha" result="shadowOffsetOuter1" />
			<feGaussianBlur in="shadowOffsetOuter1" result="shadowBlurOuter1" stdDeviation=".5" />
			<feComposite in="shadowBlurOuter1" in2="SourceAlpha" operator="out"
				result="shadowBlurOuter1" />
			<feColorMatrix in="shadowBlurOuter1"
				values="0 0 0 0 0 0 0 0 0 0 0 0 0 0 0 0 0 0 0.199473505 0" />
		</filter>
		<circle cx="15" cy="15" id="b" r="15" />
	</defs>
	<g fill="none">
		<g transform="translate(1)">
			<use fill="#000" filter="url(#a)" xlink:href="#b" />
			<use fill="#3F43AD" xlink:href="#b" />
			<use style="mix-blend-mode:soft-light" fill="url(#c)" xlink:href="#b" />
			<circle cx="15" cy="15" r="14.5" stroke="#000" stroke-linejoin="square"
				stroke-opacity=".097" />
		</g>
		<path
			d="M11.94 6.436a.877.877 0 000 1.751.877.877 0 000-1.751m4.05-2.43a.877.877 0 000 1.752.877.877 0 000-1.752m0 9.719a.877.877 0 000 1.751.877.877 0 000-1.751m4.049-2.43a.876.876 0 10.002 1.753.876.876 0 00-.002-1.753m4.049-2.429a.877.877 0 10.002 1.753.877.877 0 00-.002-1.753M11.94 16.155a.877.877 0 000 1.751.877.877 0 000-1.751M7.89 8.866a.876.876 0 10.002 1.752.876.876 0 00-.002-1.752m0 9.718a.876.876 0 10.002 1.753.876.876 0 00-.002-1.753m0-4.859a.877.877 0 000 1.751.877.877 0 000-1.751m8.1-4.859a.877.877 0 100 1.753.877.877 0 000-1.753m4.049-2.43a.877.877 0 10.002 1.753.877.877 0 00-.002-1.753m0 9.719a.876.876 0 10.001 1.752.876.876 0 00-.001-1.752m4.049-2.43a.877.877 0 000 1.751.877.877 0 000-1.751m-4.049 7.289a.876.876 0 10.001 1.753.876.876 0 00-.001-1.753m4.049-2.43a.877.877 0 000 1.752.877.877 0 000-1.752m-8.098 4.86a.877.877 0 000 1.751.877.877 0 00.876-.875.877.877 0 00-.876-.876m0-4.86a.877.877 0 10.001 1.754.877.877 0 00-.001-1.754m-4.05-7.289a.877.877 0 000 1.751.877.877 0 000-1.75m0 9.718a.877.877 0 000 1.751.877.877 0 000-1.751"
			fill="#FFF" />
	</g>
</svg>
