<svg xmlns:xlink="http://www.w3.org/1999/xlink" height="32" viewBox="0 0 32 32"
	width="32" xmlns="http://www.w3.org/2000/svg">
	<defs>
		<linearGradient id="c" x1="50%" x2="50%" y1="0%" y2="100%">
			<stop offset="0%" stop-color="#FFF" stop-opacity=".5" />
			<stop offset="100%" stop-opacity=".5" />
		</linearGradient>
		<filter filterUnits="objectBoundingBox" height="111.7%" id="a" width="111.7%" x="-5.8%"
			y="-4.2%">
			<feOffset dy=".5" in="SourceAlpha" result="shadowOffsetOuter1" />
			<feGaussianBlur in="shadowOffsetOuter1" result="shadowBlurOuter1" stdDeviation=".5" />
			<feComposite in="shadowBlurOuter1" in2="SourceAlpha" operator="out"
				result="shadowBlurOuter1" />
			<feColorMatrix in="shadowBlurOuter1"
				values="0 0 0 0 0 0 0 0 0 0 0 0 0 0 0 0 0 0 0.199473505 0" />
		</filter>
		<circle cx="16" cy="15" id="b" r="15" />
	</defs>
	<g fill="none" fill-rule="evenodd">
		<use fill="#000" filter="url(#a)" xlink:href="#b" />
		<use fill="#2AABE4" xlink:href="#b" />
		<use style="mix-blend-mode:soft-light" fill="url(#c)" xlink:href="#b" />
		<circle cx="16" cy="15" r="14.5" stroke="#000" stroke-opacity=".097" />
		<path d="M7.9 6h6.2a.9.9 0 01.9.9v6.2a.9.9 0 01-.9.9H7.9a.9.9 0 01-.9-.9V6.9a.9.9 0 01.9-.9zm10 0h6.2a.9.9 0 01.9.9v6.2a.9.9 0 01-.9.9h-6.2a.9.9 0 01-.9-.9V6.9a.9.9 0 01.9-.9zm0 10h6.2a.9.9 0 01.9.9v6.2a.9.9 0 01-.9.9h-6.2a.9.9 0 01-.9-.9v-6.2a.9.9 0 01.9-.9zm-10 0h6.2a.9.9 0 01.9.9v6.2a.9.9 0 01-.9.9H7.9a.9.9 0 01-.9-.9v-6.2a.9.9 0 01.9-.9z"
			fill="#FFF" />
	</g>
</svg>
