<svg xmlns:xlink="http://www.w3.org/1999/xlink" height="32" viewBox="0 0 32 32"
	width="32" xmlns="http://www.w3.org/2000/svg">
	<defs>
		<filter filterUnits="objectBoundingBox" height="111.7%" id="a" width="111.7%" x="-5.8%"
			y="-4.2%">
			<feOffset dy=".5" in="SourceAlpha" result="shadowOffsetOuter1" />
			<feGaussianBlur in="shadowOffsetOuter1" result="shadowBlurOuter1" stdDeviation=".5" />
			<feComposite in="shadowBlurOuter1" in2="SourceAlpha" operator="out"
				result="shadowBlurOuter1" />
			<feColorMatrix in="shadowBlurOuter1"
				values="0 0 0 0 0 0 0 0 0 0 0 0 0 0 0 0 0 0 0.199473505 0" />
		</filter>
		<filter filterUnits="objectBoundingBox" height="122.8%" id="d" width="117.7%" x="-8.9%"
			y="-8.1%">
			<feOffset dy=".5" in="SourceAlpha" result="shadowOffsetOuter1" />
			<feGaussianBlur in="shadowOffsetOuter1" result="shadowBlurOuter1" stdDeviation=".5" />
			<feColorMatrix in="shadowBlurOuter1"
				values="0 0 0 0 0 0 0 0 0 0 0 0 0 0 0 0 0 0 0.204257246 0" />
		</filter>
		<filter filterUnits="objectBoundingBox" height="129.3%" id="f" width="129.9%" x="-14.9%"
			y="-10.5%">
			<feOffset dy=".5" in="SourceAlpha" result="shadowOffsetOuter1" />
			<feGaussianBlur in="shadowOffsetOuter1" result="shadowBlurOuter1" stdDeviation=".5" />
			<feComposite in="shadowBlurOuter1" in2="SourceAlpha" operator="out"
				result="shadowBlurOuter1" />
			<feColorMatrix in="shadowBlurOuter1"
				values="0 0 0 0 0 0 0 0 0 0 0 0 0 0 0 0 0 0 0.204257246 0" />
		</filter>
		<path d="M24.668 17.863l-1.059-.663 2.31-.027.048-.026v.025l.954-.01-1.619 2.634-.145-1.27-7.364 4.063L15 18.86l-7.83 4.126v-.94l8.073-4.253 2.792 3.729 6.634-3.659zm-10.112-.905l-3.06 1.611V7.644h3.06v9.314zm8.653.481l-3.06 1.7V7.644h3.06v9.795z"
			id="e" />
		<path d="M18.883 19.843l-.657.364-2.404-3.21V8.894h3.06v10.949zm-8.654-.607l-3.06 1.612V10.312h3.06v8.924z"
			id="g" />
		<linearGradient id="c" x1="50%" x2="50%" y1="0%" y2="100%">
			<stop offset="0%" stop-color="#FFF" stop-opacity=".5" />
			<stop offset="100%" stop-opacity=".5" />
		</linearGradient>
		<circle cx="16" cy="15" id="b" r="15" />
	</defs>
	<g fill="none">
		<use fill="#000" filter="url(#a)" xlink:href="#b" />
		<use fill="#0576B4" fill-rule="evenodd" xlink:href="#b" />
		<use style="mix-blend-mode:soft-light" fill="url(#c)" fill-rule="evenodd" xlink:href="#b" />
		<circle cx="16" cy="15" r="14.5" stroke="#000" stroke-opacity=".097" />
		<use fill="#000" filter="url(#d)" xlink:href="#e" />
		<use fill="#FFF" fill-rule="evenodd" xlink:href="#e" />
		<use fill="#000" filter="url(#f)" xlink:href="#g" />
		<use fill="#FFF" fill-opacity=".5" fill-rule="evenodd" xlink:href="#g" />
	</g>
</svg>
