<svg xmlns:xlink="http://www.w3.org/1999/xlink" height="32" viewBox="0 0 32 32" width="32"
	xmlns="http://www.w3.org/2000/svg">
	<defs>
		<linearGradient id="c" x1="50%" x2="50%" y1="0%" y2="100%">
			<stop offset="0%" stop-color="#FFF" stop-opacity=".5" />
			<stop offset="100%" stop-opacity=".5" />
		</linearGradient>
		<filter filterUnits="objectBoundingBox" height="111.7%" id="a" width="111.7%" x="-5.8%"
			y="-4.2%">
			<feOffset dy=".5" in="SourceAlpha" result="shadowOffsetOuter1" />
			<feGaussianBlur in="shadowOffsetOuter1" result="shadowBlurOuter1" stdDeviation=".5" />
			<feComposite in="shadowBlurOuter1" in2="SourceAlpha" operator="out"
				result="shadowBlurOuter1" />
			<feColorMatrix in="shadowBlurOuter1"
				values="0 0 0 0 0 0 0 0 0 0 0 0 0 0 0 0 0 0 0.199473505 0" />
		</filter>
		<circle cx="15" cy="15" id="b" r="15" />
	</defs>
	<g fill="none">
		<g transform="translate(1)">
			<use fill="#000" filter="url(#a)" xlink:href="#b" />
			<use fill="#2FD2E5" xlink:href="#b" />
			<use style="mix-blend-mode:soft-light" fill="url(#c)" xlink:href="#b" />
			<circle cx="15" cy="15" r="14.5" stroke="#000" stroke-linejoin="square"
				stroke-opacity=".097" />
		</g>
		<path
			d="M16.855 4.006a10.806 10.806 0 00-6.884 2.175 1.618 1.618 0 00-.1 2.504c.57.54 1.447.582 2.067.1a7.687 7.687 0 0110.353.835c.54.558.557 1.44.038 2.019-.548.587-1.47.62-2.057.07l-.071-.07a4.801 4.801 0 100 6.47 1.427 1.427 0 011.705-.323 1.446 1.446 0 01.423 2.264 7.713 7.713 0 01-10.395.913 1.618 1.618 0 00-2.08.1 1.637 1.637 0 00.136 2.527 10.864 10.864 0 106.865-19.584zm-.2 13.556a2.689 2.689 0 11.02-5.377 2.689 2.689 0 01-.02 5.377z"
			fill="#FFF" />
	</g>
</svg>
