<svg xmlns:xlink="http://www.w3.org/1999/xlink" height="32" viewBox="0 0 32 32"
	width="32" xmlns="http://www.w3.org/2000/svg">
	<defs>
		<filter filterUnits="objectBoundingBox" height="111.7%" id="a" width="111.7%" x="-5.8%"
			y="-4.2%">
			<feOffset dy=".5" in="SourceAlpha" result="shadowOffsetOuter1" />
			<feGaussianBlur in="shadowOffsetOuter1" result="shadowBlurOuter1" stdDeviation=".5" />
			<feComposite in="shadowBlurOuter1" in2="SourceAlpha" operator="out"
				result="shadowBlurOuter1" />
			<feColorMatrix in="shadowBlurOuter1"
				values="0 0 0 0 0 0 0 0 0 0 0 0 0 0 0 0 0 0 0.199473505 0" />
		</filter>
		<filter filterUnits="objectBoundingBox" height="112%" id="d" width="116.9%" x="-8.5%"
			y="-4.3%">
			<feOffset dy=".5" in="SourceAlpha" result="shadowOffsetOuter1" />
			<feGaussianBlur in="shadowOffsetOuter1" result="shadowBlurOuter1" stdDeviation=".5" />
			<feColorMatrix in="shadowBlurOuter1"
				values="0 0 0 0 0 0 0 0 0 0 0 0 0 0 0 0 0 0 0.204257246 0" />
		</filter>
		<linearGradient id="c" x1="50%" x2="50%" y1="0%" y2="100%">
			<stop offset="0%" stop-color="#FFF" stop-opacity=".5" />
			<stop offset="100%" stop-opacity=".5" />
		</linearGradient>
		<circle cx="16" cy="15" id="b" r="15" />
		<path d="M10.998 29.146a14.999 14.999 0 01-5.307-3.25c.106-.183.21-.37.226-.395 2.235-3.538 4.243-7.198 5.755-11.11 1.604-4.148 2.887-8.406 4.11-12.681.11-.382.24-.757.36-1.135.128.149.176.286.215.426.767 2.743 1.51 5.493 2.306 8.228 1.45 4.98 3.492 9.706 6.195 14.134.304.498.814 1.318 1.528 2.46a14.996 14.996 0 01-5.59 3.394 4039.55 4039.55 0 00-4.66-14.153l-.144-.003c-1.096 3.085-2.76 7.78-4.994 14.085zm5.306-29.1h-.115l.043-.044h.005l.067.044z"
			id="e" />
	</defs>
	<g fill="none" fill-rule="evenodd">
		<use fill="#000" filter="url(#a)" xlink:href="#b" />
		<use fill="#136485" xlink:href="#b" />
		<use style="mix-blend-mode:soft-light" fill="url(#c)" xlink:href="#b" />
		<circle cx="16" cy="15" r="14.5" stroke="#000" stroke-opacity=".097" />
		<use fill="#000" filter="url(#d)" xlink:href="#e" />
		<use fill="#FFF" xlink:href="#e" />
	</g>
</svg>
