<svg xmlns:xlink="http://www.w3.org/1999/xlink" height="32" viewBox="0 0 32 32"
	width="32" xmlns="http://www.w3.org/2000/svg">
	<defs>
		<filter filterUnits="objectBoundingBox" height="111.7%" id="a" width="111.7%" x="-5.8%"
			y="-4.2%">
			<feOffset dy=".5" in="SourceAlpha" result="shadowOffsetOuter1" />
			<feGaussianBlur in="shadowOffsetOuter1" result="shadowBlurOuter1" stdDeviation=".5" />
			<feComposite in="shadowBlurOuter1" in2="SourceAlpha" operator="out"
				result="shadowBlurOuter1" />
			<feColorMatrix in="shadowBlurOuter1"
				values="0 0 0 0 0 0 0 0 0 0 0 0 0 0 0 0 0 0 0.199473505 0" />
		</filter>
		<filter filterUnits="objectBoundingBox" height="117.5%" id="d" width="129.2%" x="-14.6%"
			y="-6.2%">
			<feOffset dy=".5" in="SourceAlpha" result="shadowOffsetOuter1" />
			<feGaussianBlur in="shadowOffsetOuter1" result="shadowBlurOuter1" stdDeviation=".5" />
			<feColorMatrix in="shadowBlurOuter1" result="shadowMatrixOuter1"
				values="0 0 0 0 0 0 0 0 0 0 0 0 0 0 0 0 0 0 0.204257246 0" />
			<feMerge>
				<feMergeNode in="shadowMatrixOuter1" />
				<feMergeNode in="SourceGraphic" />
			</feMerge>
		</filter>
		<linearGradient id="c" x1="50%" x2="50%" y1="0%" y2="100%">
			<stop offset="0%" stop-color="#FFF" stop-opacity=".5" />
			<stop offset="100%" stop-opacity=".5" />
		</linearGradient>
		<circle cx="16" cy="15" id="b" r="15" />
	</defs>
	<g fill="none">
		<use fill="#000" filter="url(#a)" xlink:href="#b" />
		<use fill="#00ADED" fill-rule="evenodd" xlink:href="#b" />
		<use style="mix-blend-mode:soft-light" fill="url(#c)" fill-rule="evenodd" xlink:href="#b" />
		<circle cx="16" cy="15" r="14.5" stroke="#000" stroke-opacity=".097" />
		<g fill="#FFF" filter="url(#d)" transform="translate(10 5)">
			<path
				d="M.097 17.603l.002-.004 3.188-7.616-3.19-7.615 5.885 7.615-5.881 7.615-.004.005zm11.776 0l-.004-.005-5.881-7.615 5.885-7.615-3.19 7.615 3.188 7.616.002.004z" />
			<path d="M5.985 9.984v5.306L.095 17.6l5.89-7.62V4.674l5.89-2.31-5.89 7.62z"
				fill-opacity=".8" />
			<path d="M5.985 15.29v4.651l-5.89-2.344 5.89-2.315V9.984l-5.89-7.62 5.89 2.31V.023l5.89 2.343-5.89 2.315V9.98l5.89 7.62-5.89-2.31z"
				fill-opacity=".5" />
			<path d="M.095 2.366L5.985.023V4.68L.095 2.366zm11.78 15.231l-5.89 2.344v-4.659l5.89 2.315z"
				fill-opacity=".145" />
		</g>
	</g>
</svg>
