<svg xmlns:xlink="http://www.w3.org/1999/xlink" height="32" viewBox="0 0 32 32"
	width="32" xmlns="http://www.w3.org/2000/svg">
	<defs>
		<filter filterUnits="objectBoundingBox" height="111.7%" id="a" width="111.7%" x="-5.8%"
			y="-4.2%">
			<feOffset dy=".5" in="SourceAlpha" result="shadowOffsetOuter1" />
			<feGaussianBlur in="shadowOffsetOuter1" result="shadowBlurOuter1" stdDeviation=".5" />
			<feComposite in="shadowBlurOuter1" in2="SourceAlpha" operator="out"
				result="shadowBlurOuter1" />
			<feColorMatrix in="shadowBlurOuter1"
				values="0 0 0 0 0 0 0 0 0 0 0 0 0 0 0 0 0 0 0.199473505 0" />
		</filter>
		<filter filterUnits="objectBoundingBox" height="114.6%" id="d" width="125%" x="-12.5%"
			y="-5.2%">
			<feOffset dy=".5" in="SourceAlpha" result="shadowOffsetOuter1" />
			<feGaussianBlur in="shadowOffsetOuter1" result="shadowBlurOuter1" stdDeviation=".5" />
			<feColorMatrix in="shadowBlurOuter1" result="shadowMatrixOuter1"
				values="0 0 0 0 0 0 0 0 0 0 0 0 0 0 0 0 0 0 0.204257246 0" />
			<feMerge>
				<feMergeNode in="shadowMatrixOuter1" />
				<feMergeNode in="SourceGraphic" />
			</feMerge>
		</filter>
		<linearGradient id="c" x1="50%" x2="50%" y1="0%" y2="100%">
			<stop offset="0%" stop-color="#FFF" stop-opacity=".5" />
			<stop offset="100%" stop-opacity=".5" />
		</linearGradient>
		<circle cx="16" cy="15" id="b" r="15" />
	</defs>
	<g fill="none" fill-rule="evenodd">
		<use fill="#000" filter="url(#a)" xlink:href="#b" />
		<use fill="#328332" xlink:href="#b" />
		<use style="mix-blend-mode:soft-light" fill="url(#c)" xlink:href="#b" />
		<circle cx="16" cy="15" r="14.5" stroke="#000" stroke-opacity=".097" />
		<g fill="#FFF" filter="url(#d)" transform="translate(9 3)">
			<path d="M6.989 12.553l-6.721-.577 6.72-3.802v4.379zm0 4.46v6.94C4.652 20.315 2.076 16.311 0 13.07c2.45 1.38 5.008 2.823 6.989 3.944zm0-10.068L0 10.845 6.989 0v6.945z"
				fill-rule="nonzero" />
			<path d="M13.71 11.976l-6.721.577V8.174l6.72 3.802zm-6.721 5.038c1.98-1.12 4.537-2.564 6.988-3.944-2.076 3.242-4.652 7.246-6.988 10.882v-6.938zm0-10.069V0l6.988 10.845-6.988-3.9z" fill-opacity=".601"
				fill-rule="nonzero" />
			<path d="M6.989 12.553l6.72-.577-6.72 3.775z" opacity=".2" />
			<path d="M6.988 12.553l-6.721-.577 6.721 3.775z" opacity=".603" />
		</g>
	</g>
</svg>
