<svg xmlns:xlink="http://www.w3.org/1999/xlink" height="32" viewBox="0 0 32 32"
	width="32" xmlns="http://www.w3.org/2000/svg">
	<defs>
		<filter filterUnits="objectBoundingBox" height="111.7%" id="a" width="111.7%" x="-5.8%"
			y="-4.2%">
			<feOffset dy=".5" in="SourceAlpha" result="shadowOffsetOuter1" />
			<feGaussianBlur in="shadowOffsetOuter1" result="shadowBlurOuter1" stdDeviation=".5" />
			<feComposite in="shadowBlurOuter1" in2="SourceAlpha" operator="out"
				result="shadowBlurOuter1" />
			<feColorMatrix in="shadowBlurOuter1"
				values="0 0 0 0 0 0 0 0 0 0 0 0 0 0 0 0 0 0 0.199473505 0" />
		</filter>
		<filter filterUnits="objectBoundingBox" height="114.6%" id="d" width="123.3%" x="-11.7%"
			y="-5.2%">
			<feOffset dy=".5" in="SourceAlpha" result="shadowOffsetOuter1" />
			<feGaussianBlur in="shadowOffsetOuter1" result="shadowBlurOuter1" stdDeviation=".5" />
			<feComposite in="shadowBlurOuter1" in2="SourceAlpha" operator="out"
				result="shadowBlurOuter1" />
			<feColorMatrix in="shadowBlurOuter1"
				values="0 0 0 0 0 0 0 0 0 0 0 0 0 0 0 0 0 0 0.204257246 0" />
		</filter>
		<linearGradient id="c" x1="50%" x2="50%" y1="0%" y2="100%">
			<stop offset="0%" stop-color="#FFF" stop-opacity=".5" />
			<stop offset="100%" stop-opacity=".5" />
		</linearGradient>
		<circle cx="16" cy="15" id="b" r="15" />
		<path d="M16.498 20.968L24 16.616l-7.502 10.379L9 16.615l7.498 4.351zm0-17.968l7.497 12.22-7.497 4.353L9 15.22 16.498 3z"
			id="e" />
	</defs>
	<g fill="none" fill-rule="evenodd">
		<use fill="#000" filter="url(#a)" xlink:href="#b" />
		<use fill="#627EEA" xlink:href="#b" />
		<use style="mix-blend-mode:soft-light" fill="url(#c)" xlink:href="#b" />
		<circle cx="16" cy="15" r="14.5" stroke="#000" stroke-opacity=".097" />
		<g fill-rule="nonzero">
			<use fill="#000" filter="url(#d)" xlink:href="#e" />
			<use fill="#FFF" fill-opacity="0" fill-rule="evenodd" xlink:href="#e" />
		</g>
		<g fill="#FFF" fill-rule="nonzero">
			<path d="M16.498 3v8.87l7.497 3.35z" fill-opacity=".602" />
			<path d="M16.498 3L9 15.22l7.498-3.35z" />
			<path d="M16.498 20.968v6.027L24 16.616z" fill-opacity=".602" />
			<path d="M16.498 26.995v-6.028L9 16.616z" />
			<path d="M16.498 19.573l7.497-4.353-7.497-3.348z" fill-opacity=".2" />
			<path d="M9 15.22l7.498 4.353v-7.701z" fill-opacity=".602" />
		</g>
	</g>
</svg>
