<svg xmlns:xlink="http://www.w3.org/1999/xlink" height="32" viewBox="0 0 32 32" width="32"
	xmlns="http://www.w3.org/2000/svg">
	<defs>
		<linearGradient id="c" x1="50%" x2="50%" y1="0%" y2="100%">
			<stop offset="0%" stop-color="#FFF" stop-opacity=".5" />
			<stop offset="100%" stop-opacity=".5" />
		</linearGradient>
		<filter filterUnits="objectBoundingBox" height="111.7%" id="a" width="111.7%" x="-5.8%"
			y="-4.2%">
			<feOffset dy=".5" in="SourceAlpha" result="shadowOffsetOuter1" />
			<feGaussianBlur in="shadowOffsetOuter1" result="shadowBlurOuter1" stdDeviation=".5" />
			<feComposite in="shadowBlurOuter1" in2="SourceAlpha" operator="out"
				result="shadowBlurOuter1" />
			<feColorMatrix in="shadowBlurOuter1"
				values="0 0 0 0 0 0 0 0 0 0 0 0 0 0 0 0 0 0 0.199473505 0" />
		</filter>
		<circle cx="16" cy="15" id="b" r="15" />
	</defs>
	<g fill="none" fill-rule="evenodd">
		<use fill="#000" filter="url(#a)" xlink:href="#b" />
		<use fill="#2B61D1" xlink:href="#b" />
		<use style="mix-blend-mode:soft-light" fill="url(#c)" xlink:href="#b" />
		<circle cx="16" cy="15" r="14.5" stroke="#000" stroke-linejoin="square"
			stroke-opacity=".097" />
		<g fill="#FFF" fill-rule="nonzero">
			<path
				d="M17.963 24.862L16 26l-4.218-2.442 1.915-1.109.048-.028.073.042zM25.5 9.5v2.289l-4.152-2.403-1.126-.652-1.126.652-5.278 3.055-1.126.652v1.348l-2.03-1.176-1.127-.652-1.126.652L6.5 14.371V9.5L16 4z" />
			<path
				d="M25.5 14.397v6.111l-5.278 3.056-.007-.004-5.27-3.052v-6.11l5.277-3.058zm-12.929 2.582v3.514L9.536 22.25 6.5 20.493v-3.514l3.036-1.758z" />
		</g>
	</g>
</svg>
