<svg xmlns:xlink="http://www.w3.org/1999/xlink" height="32" viewBox="0 0 32 32" width="32"
	xmlns="http://www.w3.org/2000/svg">
	<defs>
		<linearGradient id="c" x1="50%" x2="50%" y1="0%" y2="100%">
			<stop offset="0%" stop-color="#FFF" stop-opacity=".5" />
			<stop offset="100%" stop-opacity=".5" />
		</linearGradient>
		<filter filterUnits="objectBoundingBox" height="111.7%" id="a" width="111.7%" x="-5.8%"
			y="-4.2%">
			<feOffset dy=".5" in="SourceAlpha" result="shadowOffsetOuter1" />
			<feGaussianBlur in="shadowOffsetOuter1" result="shadowBlurOuter1" stdDeviation=".5" />
			<feComposite in="shadowBlurOuter1" in2="SourceAlpha" operator="out"
				result="shadowBlurOuter1" />
			<feColorMatrix in="shadowBlurOuter1"
				values="0 0 0 0 0 0 0 0 0 0 0 0 0 0 0 0 0 0 0.199473505 0" />
		</filter>
		<circle cx="15" cy="15" id="b" r="15" />
	</defs>
	<g fill="none">
		<g transform="translate(1)">
			<use fill="#000" filter="url(#a)" xlink:href="#b" />
			<use fill="#00DCFA" xlink:href="#b" />
			<use style="mix-blend-mode:soft-light" fill="url(#c)" xlink:href="#b" />
			<circle cx="15" cy="15" r="14.5" stroke="#000" stroke-linejoin="square"
				stroke-opacity=".097" />
		</g>
		<path
			d="M19.07 5c-3.517 0-6.505 2.706-6.882 6.188C8.706 11.565 6 14.553 6 18.071A6.934 6.934 0 0012.93 25c3.517 0 6.517-2.706 6.882-6.188C23.294 18.435 26 15.447 26 11.929A6.934 6.934 0 0019.07 5zm5.306 7.706a5.392 5.392 0 01-4.517 4.518v-4.518h4.517zM7.624 17.294a5.392 5.392 0 014.517-4.53v4.518H7.624v.012zm10.611 1.565a5.359 5.359 0 01-5.306 4.576 5.358 5.358 0 01-5.305-4.576h10.611zm.06-6.153v4.576h-4.59v-4.576h4.59zm6.081-1.565H13.765a5.359 5.359 0 015.306-4.576 5.358 5.358 0 015.305 4.576z"
			fill="#FFF" />
	</g>
</svg>
