<svg xmlns:xlink="http://www.w3.org/1999/xlink" height="32" viewBox="0 0 32 32" width="32"
	xmlns="http://www.w3.org/2000/svg">
	<defs>
		<linearGradient id="c" x1="50%" x2="50%" y1="0%" y2="100%">
			<stop offset="0%" stop-color="#FFF" stop-opacity=".5" />
			<stop offset="100%" stop-opacity=".5" />
		</linearGradient>
		<filter filterUnits="objectBoundingBox" height="111.7%" id="a" width="111.7%" x="-5.8%"
			y="-4.2%">
			<feOffset dy=".5" in="SourceAlpha" result="shadowOffsetOuter1" />
			<feGaussianBlur in="shadowOffsetOuter1" result="shadowBlurOuter1" stdDeviation=".5" />
			<feComposite in="shadowBlurOuter1" in2="SourceAlpha" operator="out"
				result="shadowBlurOuter1" />
			<feColorMatrix in="shadowBlurOuter1"
				values="0 0 0 0 0 0 0 0 0 0 0 0 0 0 0 0 0 0 0.199473505 0" />
		</filter>
		<circle cx="15" cy="15" id="b" r="15" />
	</defs>
	<g fill="none">
		<g transform="translate(1)">
			<use fill="#000" filter="url(#a)" xlink:href="#b" />
			<use fill="#2A3069" fill-rule="evenodd" xlink:href="#b" />
			<use style="mix-blend-mode:soft-light" fill="url(#c)" fill-rule="evenodd"
				xlink:href="#b" />
			<circle cx="15" cy="15" r="14.5" stroke="#000" stroke-linejoin="square"
				stroke-opacity=".097" />
		</g>
		<g fill="#FFF">
			<path
				d="M18.053 10.467c0-3.08-1.493-5.694-2.613-6.534 0 0-.093-.093-.093.094-.094 5.88-3.08 7.466-4.667 9.706-3.827 4.947-.28 10.454 3.36 11.48 2.053.56-.467-1.026-.747-4.293-.466-4.107 4.76-7.093 4.76-10.453" />
			<path
				d="M20.013 12.52c-.186.747-.933 2.333-1.96 3.827-3.453 4.946-1.493 7.373-.373 8.68.653.746 0 0 1.587-.747.093-.093 3.173-1.68 3.453-5.32.373-3.547-1.867-5.787-2.707-6.44" />
		</g>
	</g>
</svg>
