<svg xmlns:xlink="http://www.w3.org/1999/xlink" height="32" viewBox="0 0 32 32"
	width="32" xmlns="http://www.w3.org/2000/svg">
	<defs>
		<filter filterUnits="objectBoundingBox" height="111.7%" id="a" width="111.7%" x="-5.8%"
			y="-4.2%">
			<feOffset dy=".5" in="SourceAlpha" result="shadowOffsetOuter1" />
			<feGaussianBlur in="shadowOffsetOuter1" result="shadowBlurOuter1" stdDeviation=".5" />
			<feComposite in="shadowBlurOuter1" in2="SourceAlpha" operator="out"
				result="shadowBlurOuter1" />
			<feColorMatrix in="shadowBlurOuter1"
				values="0 0 0 0 0 0 0 0 0 0 0 0 0 0 0 0 0 0 0.199473505 0" />
		</filter>
		<filter filterUnits="objectBoundingBox" height="117.5%" id="d" width="119.4%" x="-9.7%"
			y="-6.2%">
			<feOffset dy=".5" in="SourceAlpha" result="shadowOffsetOuter1" />
			<feGaussianBlur in="shadowOffsetOuter1" result="shadowBlurOuter1" stdDeviation=".5" />
			<feColorMatrix in="shadowBlurOuter1"
				values="0 0 0 0 0 0 0 0 0 0 0 0 0 0 0 0 0 0 0.204257246 0" />
		</filter>
		<linearGradient id="c" x1="50%" x2="50%" y1="0%" y2="100%">
			<stop offset="0%" stop-color="#FFF" stop-opacity=".5" />
			<stop offset="100%" stop-opacity=".5" />
		</linearGradient>
		<circle cx="16" cy="15" id="b" r="15" />
		<path d="M16.02 15.945v7.992l5.947-1.601 1.397-15.39H16.02v6.532l.304-.947h.796l-1.1 3.414zm-7.384 7.524L7 5.5h18l-1.636 17.969L15.98 25.5l-7.344-2.031zm5.163-6.793v-.741l-2.469-.984 2.47-.99v-.742l-3.527 1.433v.592l3.526 1.432zm7.933-1.432l-3.527 1.432v-.741l2.47-.987-2.47-.987v-.742l3.527 1.433v.592zm-5.712.7v-2.466l-1.317 4.107h.788l.529-1.64z"
			id="e" />
	</defs>
	<g fill="none" fill-rule="evenodd">
		<use fill="#000" filter="url(#a)" xlink:href="#b" />
		<use fill="#CFA967" xlink:href="#b" />
		<use style="mix-blend-mode:soft-light" fill="url(#c)" xlink:href="#b" />
		<circle cx="16" cy="15" r="14.5" stroke="#000" stroke-opacity=".097" />
		<g fill-rule="nonzero">
			<use fill="#000" filter="url(#d)" xlink:href="#e" />
			<use fill="#FFF" fill-rule="evenodd" xlink:href="#e" />
		</g>
	</g>
</svg>
