<svg xmlns:xlink="http://www.w3.org/1999/xlink" height="32" viewBox="0 0 32 32" width="32"
	xmlns="http://www.w3.org/2000/svg">
	<defs>
		<linearGradient id="c" x1="50%" x2="50%" y1="0%" y2="100%">
			<stop offset="0%" stop-color="#FFF" stop-opacity=".5" />
			<stop offset="100%" stop-opacity=".5" />
		</linearGradient>
		<filter filterUnits="objectBoundingBox" height="111.7%" id="a" width="111.7%" x="-5.8%"
			y="-4.2%">
			<feOffset dy=".5" in="SourceAlpha" result="shadowOffsetOuter1" />
			<feGaussianBlur in="shadowOffsetOuter1" result="shadowBlurOuter1" stdDeviation=".5" />
			<feComposite in="shadowBlurOuter1" in2="SourceAlpha" operator="out"
				result="shadowBlurOuter1" />
			<feColorMatrix in="shadowBlurOuter1"
				values="0 0 0 0 0 0 0 0 0 0 0 0 0 0 0 0 0 0 0.199473505 0" />
		</filter>
		<circle cx="15" cy="15" id="b" r="15" />
	</defs>
	<g fill="none">
		<g transform="translate(1)">
			<use fill="#000" filter="url(#a)" xlink:href="#b" />
			<use fill="#00D4D5" xlink:href="#b" />
			<use style="mix-blend-mode:soft-light" fill="url(#c)" xlink:href="#b" />
			<circle cx="15" cy="15" r="14.5" stroke="#000" stroke-linejoin="square"
				stroke-opacity=".097" />
		</g>
		<g fill="#FFF">
			<path d="M16.31 5v5.002l4.342-2.497z" />
			<path d="M20.652 7.505v5.002l4.343-2.505z" opacity=".9" />
			<path d="M16.31 10.002v5.003l4.342-2.498zm4.342 2.505v5.002l4.343-2.504zm-4.342 2.498v5.002l4.342-2.498z"
				opacity=".8" />
			<path d="M20.652 17.51v5.001l4.343-2.504z" />
			<path d="M5.084 9.834v5.002l4.343-2.505z" opacity=".4" />
			<path d="M10.563 11.693v5.002l4.336-2.497z" opacity=".2" />
			<path d="M7.343 14.857v5.003l4.343-2.505z" opacity=".3" />
			<path d="M10.205 18.632v5.002l4.336-2.505z" opacity=".9" />
			<path d="M16.274 20.786v5.002l4.336-2.505z" opacity=".7" />
			<path d="M11.286 9.223v5.003l4.335-2.498z" opacity=".9" />
			<path d="M16.31 5v5.002l-4.344-2.497z" opacity=".8" />
			<path d="M11.286 7.126v5.002L6.943 9.623zm4.343 2.476v5.003L11.286 12.1z"
				opacity=".6" />
			<path d="M10.542 11.693v5.002L6.2 14.198z" opacity=".95" />
			<path d="M16.31 15.005v5.002l-4.337-2.498z" opacity=".6" />
			<path d="M7.343 16.17v5.002L3 18.667z" opacity=".55" />
			<path d="M24.995 10.002v5.003l-4.343-2.498z" />
			<path d="M20.652 12.507v5.002l-4.343-2.504z" opacity=".95" />
			<path d="M24.995 15.005v5.002l-4.343-2.498z" opacity=".9" />
			<path d="M20.652 17.51v5.001l-4.343-2.504z" opacity=".7" />
			<path d="M15.348 19.593v5.002l-4.343-2.497z" opacity=".4" />
			<path d="M20.652 7.505v5.002l-4.343-2.505z" />
		</g>
	</g>
</svg>
