<svg xmlns:xlink="http://www.w3.org/1999/xlink" height="32" viewBox="0 0 32 32" width="32"
	xmlns="http://www.w3.org/2000/svg">
	<defs>
		<linearGradient id="c" x1="50%" x2="50%" y1="0%" y2="100%">
			<stop offset="0%" stop-color="#FFF" stop-opacity=".5" />
			<stop offset="100%" stop-opacity=".5" />
		</linearGradient>
		<filter filterUnits="objectBoundingBox" height="111.7%" id="a" width="111.7%" x="-5.8%"
			y="-4.2%">
			<feOffset dy=".5" in="SourceAlpha" result="shadowOffsetOuter1" />
			<feGaussianBlur in="shadowOffsetOuter1" result="shadowBlurOuter1" stdDeviation=".5" />
			<feComposite in="shadowBlurOuter1" in2="SourceAlpha" operator="out"
				result="shadowBlurOuter1" />
			<feColorMatrix in="shadowBlurOuter1"
				values="0 0 0 0 0 0 0 0 0 0 0 0 0 0 0 0 0 0 0.199473505 0" />
		</filter>
		<circle cx="16" cy="15" id="b" r="15" />
	</defs>
	<g fill="none" fill-rule="evenodd">
		<use fill="#000" filter="url(#a)" xlink:href="#b" />
		<use fill="#6F41D8" xlink:href="#b" />
		<use style="mix-blend-mode:soft-light" fill="url(#c)" xlink:href="#b" />
		<circle cx="16" cy="15" r="14.5" stroke="#000" stroke-linejoin="square"
			stroke-opacity=".097" />
		<path
			d="M21.092 11.693c-.369-.215-.848-.215-1.254 0l-2.879 1.654-1.955 1.078-2.879 1.653c-.369.216-.848.216-1.254 0l-2.288-1.294c-.369-.215-.627-.61-.627-1.042V11.19c0-.431.221-.826.627-1.042l2.25-1.258c.37-.216.85-.216 1.256 0l2.25 1.258c.37.216.628.611.628 1.042v1.654l1.955-1.115v-1.653a1.16 1.16 0 00-.627-1.042l-4.17-2.372c-.369-.216-.848-.216-1.254 0L6.627 9.034A1.16 1.16 0 006 10.076v4.78c0 .432.221.827.627 1.043l4.244 2.372c.369.215.849.215 1.254 0l2.879-1.618 1.955-1.114 2.879-1.617c.369-.216.848-.216 1.254 0l2.251 1.258c.37.215.627.61.627 1.042v2.552c0 .431-.22.826-.627 1.042l-2.25 1.294c-.37.216-.85.216-1.255 0l-2.251-1.258c-.37-.216-.628-.611-.628-1.042v-1.654l-1.955 1.115v1.653c0 .431.221.827.627 1.042l4.244 2.372c.369.216.848.216 1.254 0l4.244-2.372c.369-.215.627-.61.627-1.042v-4.78a1.16 1.16 0 00-.627-1.042l-4.28-2.409z"
			fill="#FFF" fill-rule="nonzero" />
	</g>
</svg>
