<svg xmlns:xlink="http://www.w3.org/1999/xlink" height="32" viewBox="0 0 32 32" width="32"
	xmlns="http://www.w3.org/2000/svg">
	<defs>
		<linearGradient id="c" x1="50%" x2="50%" y1="0%" y2="100%">
			<stop offset="0%" stop-color="#FFF" stop-opacity=".5" />
			<stop offset="100%" stop-opacity=".5" />
		</linearGradient>
		<filter filterUnits="objectBoundingBox" height="111.7%" id="a" width="111.7%" x="-5.8%"
			y="-4.2%">
			<feOffset dy=".5" in="SourceAlpha" result="shadowOffsetOuter1" />
			<feGaussianBlur in="shadowOffsetOuter1" result="shadowBlurOuter1" stdDeviation=".5" />
			<feComposite in="shadowBlurOuter1" in2="SourceAlpha" operator="out"
				result="shadowBlurOuter1" />
			<feColorMatrix in="shadowBlurOuter1"
				values="0 0 0 0 0 0 0 0 0 0 0 0 0 0 0 0 0 0 0.199473505 0" />
		</filter>
		<circle cx="15" cy="15" id="b" r="15" />
	</defs>
	<g fill="none">
		<g transform="translate(1)">
			<use fill="#000" filter="url(#a)" xlink:href="#b" />
			<use fill="#DA1157" xlink:href="#b" />
			<use style="mix-blend-mode:soft-light" fill="url(#c)" xlink:href="#b" />
			<circle cx="15" cy="15" r="14.5" stroke="#000" stroke-linejoin="square"
				stroke-opacity=".097" />
		</g>
		<path
			d="M20.98 17.89a3.026 3.026 0 100-6.053 3.026 3.026 0 000 6.052zm0-10.006a6.98 6.98 0 11-5.003 11.843 6.955 6.955 0 001.976-4.864A6.954 6.954 0 0015.977 10a6.957 6.957 0 015.003-2.115zM10.974 17.889a3.026 3.026 0 100-6.052 3.026 3.026 0 000 6.052zM15.977 10A6.955 6.955 0 0014 14.863c0 1.892.755 3.607 1.977 4.864a6.98 6.98 0 110-9.728zM14 14.864c0 1.892.754 3.607 1.976 4.864a6.954 6.954 0 001.977-4.864A6.954 6.954 0 0015.976 10 6.954 6.954 0 0014 14.864z"
			fill="#FFF" />
	</g>
</svg>
