<svg xmlns:xlink="http://www.w3.org/1999/xlink" height="32" viewBox="0 0 32 32"
	width="32" xmlns="http://www.w3.org/2000/svg">
	<defs>
		<filter filterUnits="objectBoundingBox" height="111.7%" id="a" width="111.7%" x="-5.8%"
			y="-4.2%">
			<feOffset dy=".5" in="SourceAlpha" result="shadowOffsetOuter1" />
			<feGaussianBlur in="shadowOffsetOuter1" result="shadowBlurOuter1" stdDeviation=".5" />
			<feComposite in="shadowBlurOuter1" in2="SourceAlpha" operator="out"
				result="shadowBlurOuter1" />
			<feColorMatrix in="shadowBlurOuter1"
				values="0 0 0 0 0 0 0 0 0 0 0 0 0 0 0 0 0 0 0.199473505 0" />
		</filter>
		<filter filterUnits="objectBoundingBox" height="123.3%" id="d" width="119.4%" x="-9.7%"
			y="-8.3%">
			<feOffset dy=".5" in="SourceAlpha" result="shadowOffsetOuter1" />
			<feGaussianBlur in="shadowOffsetOuter1" result="shadowBlurOuter1" stdDeviation=".5" />
			<feColorMatrix in="shadowBlurOuter1" result="shadowMatrixOuter1"
				values="0 0 0 0 0 0 0 0 0 0 0 0 0 0 0 0 0 0 0.204257246 0" />
			<feMerge>
				<feMergeNode in="shadowMatrixOuter1" />
				<feMergeNode in="SourceGraphic" />
			</feMerge>
		</filter>
		<linearGradient id="c" x1="50%" x2="50%" y1="0%" y2="100%">
			<stop offset="0%" stop-color="#FFF" stop-opacity=".5" />
			<stop offset="100%" stop-opacity=".5" />
		</linearGradient>
		<circle cx="16" cy="15" id="b" r="15" />
	</defs>
	<g fill="none">
		<use fill="#000" filter="url(#a)" xlink:href="#b" />
		<use fill="#104FCA" fill-rule="evenodd" xlink:href="#b" />
		<use style="mix-blend-mode:soft-light" fill="url(#c)" fill-rule="evenodd" xlink:href="#b" />
		<circle cx="16" cy="15" r="14.5" stroke="#000" stroke-opacity=".097" />
		<g fill="#FFF" filter="url(#d)" transform="translate(7 8)">
			<path d="M0 .568L4.234 7.67V15C1.896 15 0 13.164 0 10.899V.568z" fill-opacity=".5" />
			<path d="M13.765 7.663L17.997.564h.002V10.9C18 13.164 16.104 15 13.765 15V7.663z"
				fill-opacity=".6" />
			<path d="M8.997 7.458L6.88 11.01c-.439-.11-.911-.536-1.416-1.277L0 .568c2.025-1.133 4.615-.46 5.784 1.5l3.213 5.39z"
				fill-opacity=".8" />
			<path
				d="M12.216 2.06C13.385.098 15.975-.574 18 .559l-5.464 9.165A4.267 4.267 0 019 11.568a4.33 4.33 0 01-1.9-.435l-.22-.123 5.336-8.95z" />
		</g>
	</g>
</svg>
