<svg xmlns:xlink="http://www.w3.org/1999/xlink" height="32" viewBox="0 0 32 32" width="32"
	xmlns="http://www.w3.org/2000/svg">
	<defs>
		<linearGradient id="c" x1="50%" x2="50%" y1="0%" y2="100%">
			<stop offset="0%" stop-color="#FFF" stop-opacity=".5" />
			<stop offset="100%" stop-opacity=".5" />
		</linearGradient>
		<filter filterUnits="objectBoundingBox" height="111.7%" id="a" width="111.7%" x="-5.8%"
			y="-4.2%">
			<feOffset dy=".5" in="SourceAlpha" result="shadowOffsetOuter1" />
			<feGaussianBlur in="shadowOffsetOuter1" result="shadowBlurOuter1" stdDeviation=".5" />
			<feComposite in="shadowBlurOuter1" in2="SourceAlpha" operator="out"
				result="shadowBlurOuter1" />
			<feColorMatrix in="shadowBlurOuter1"
				values="0 0 0 0 0 0 0 0 0 0 0 0 0 0 0 0 0 0 0.199473505 0" />
		</filter>
		<circle cx="15" cy="15" id="b" r="15" />
	</defs>
	<g fill="none">
		<g transform="translate(1)">
			<use fill="#000" filter="url(#a)" xlink:href="#b" />
			<use fill="#B3BA00" fill-rule="evenodd" xlink:href="#b" />
			<use style="mix-blend-mode:soft-light" fill="url(#c)" fill-rule="evenodd"
				xlink:href="#b" />
			<circle cx="15" cy="15" r="14.5" stroke="#000" stroke-linejoin="square"
				stroke-opacity=".097" />
		</g>
		<g fill="#FFF">
			<path
				d="M13.273 10.186l-.12.075 5.597 8.845v-8.853l-2.795-1.657zm-.181 9.425l2.863 1.703 2.614-1.552-5.477-8.657zm-2.502-7.836v6.36l1.997 1.182v-8.725zm8.665 7.58l2.064-1.22v-6.36l-2.064-1.22z" />
			<path
				d="M16 4C9.927 4 5 8.927 5 15s4.927 11 11 11 11-4.927 11-11S22.073 4 16 4zm-.045 17.984l-5.937-3.518v-7.03l5.937-3.51 5.937 3.51v7.03l-5.937 3.518z" />
		</g>
	</g>
</svg>
