<svg xmlns:xlink="http://www.w3.org/1999/xlink" height="32" viewBox="0 0 32 32" width="32"
	xmlns="http://www.w3.org/2000/svg">
	<defs>
		<linearGradient id="c" x1="50%" x2="50%" y1="0%" y2="100%">
			<stop offset="0%" stop-color="#FFF" />
			<stop offset="100%" />
		</linearGradient>
		<filter filterUnits="objectBoundingBox" height="111.7%" id="a" width="111.7%" x="-5.8%"
			y="-4.2%">
			<feOffset dy=".5" in="SourceAlpha" result="shadowOffsetOuter1" />
			<feGaussianBlur in="shadowOffsetOuter1" result="shadowBlurOuter1" stdDeviation=".5" />
			<feComposite in="shadowBlurOuter1" in2="SourceAlpha" operator="out"
				result="shadowBlurOuter1" />
			<feColorMatrix in="shadowBlurOuter1"
				values="0 0 0 0 0 0 0 0 0 0 0 0 0 0 0 0 0 0 0.199473505 0" />
		</filter>
		<circle cx="15" cy="15" id="b" r="15" />
	</defs>
	<g fill="none">
		<g transform="translate(1)">
			<use fill="#000" filter="url(#a)" xlink:href="#b" />
			<use fill="#1A4199" xlink:href="#b" />
			<use style="mix-blend-mode:soft-light" fill="url(#c)" xlink:href="#b" />
			<circle cx="15" cy="15" r="14.5" stroke="#000" stroke-linejoin="square"
				stroke-opacity=".097" />
		</g>
		<g fill="#FFF">
			<path d="M11.16 7.114l9.756 5.628v5.744L6 9.872l4.786-2.758a.382.382 0 01.382 0"
				opacity=".7" />
			<path d="M20.916 7l-4.97 2.872 4.97 2.87z" opacity=".9" />
			<path d="M20.916 7l4.786 2.76c.123.066.2.194.2.334v11.262l-4.986-2.87V7z" />
			<path d="M25.892 21.356l-4.786 2.758a.4.4 0 01-.382 0l-9.756-5.628v-5.752l14.924 8.622z"
				opacity=".9" />
			<path d="M6 9.872v11.262c0 .14.077.268.2.334l4.786 2.76V12.734L6 9.872z" opacity=".6" />
			<path d="M10.978 24.228l4.968-2.872-4.968-2.87z" opacity=".7" />
		</g>
	</g>
</svg>
