<svg xmlns:xlink="http://www.w3.org/1999/xlink" height="32" viewBox="0 0 32 32" width="32"
	xmlns="http://www.w3.org/2000/svg">
	<defs>
		<linearGradient id="c" x1="50%" x2="50%" y1="0%" y2="100%">
			<stop offset="0%" stop-color="#FFF" stop-opacity=".5" />
			<stop offset="100%" stop-opacity=".5" />
		</linearGradient>
		<filter filterUnits="objectBoundingBox" height="111.7%" id="a" width="111.7%" x="-5.8%"
			y="-4.2%">
			<feOffset dy=".5" in="SourceAlpha" result="shadowOffsetOuter1" />
			<feGaussianBlur in="shadowOffsetOuter1" result="shadowBlurOuter1" stdDeviation=".5" />
			<feComposite in="shadowBlurOuter1" in2="SourceAlpha" operator="out"
				result="shadowBlurOuter1" />
			<feColorMatrix in="shadowBlurOuter1"
				values="0 0 0 0 0 0 0 0 0 0 0 0 0 0 0 0 0 0 0.199473505 0" />
		</filter>
		<circle cx="15" cy="15" id="b" r="15" />
	</defs>
	<g fill="none">
		<g transform="translate(1)">
			<use fill="#000" filter="url(#a)" xlink:href="#b" />
			<use fill="#F5D100" fill-rule="evenodd" xlink:href="#b" />
			<use style="mix-blend-mode:soft-light" fill="url(#c)" fill-rule="evenodd"
				xlink:href="#b" />
			<circle cx="15" cy="15" r="14.5" stroke="#000" stroke-linejoin="square"
				stroke-opacity=".097" />
		</g>
		<g fill="#FFF">
			<path
				d="M15.975 4C9.925 4 5 8.925 5 14.975s4.925 10.983 10.983 10.983c6.059 0 10.983-4.925 10.983-10.983C26.966 8.916 22.033 4 15.975 4zm0 21.112c-5.585 0-10.137-4.544-10.137-10.137C5.846 9.39 10.39 4.846 15.975 4.846c5.584 0 10.137 4.544 10.137 10.137 0 5.585-4.544 10.129-10.137 10.129z" />
			<path
				d="M10.292 10.102l.808-.808 4.295 4.296-.807.808zm6.25 6.252l.808-.808 4.295 4.296-.807.808zm-1.37-1.377l.807-.807.814.814-.807.807zm1.383-1.352L20.85 9.33l.808.808-4.296 4.296zm-6.231 6.223l4.295-4.296.808.808-4.296 4.296z" />
		</g>
	</g>
</svg>
