<svg xmlns:xlink="http://www.w3.org/1999/xlink" height="32" viewBox="0 0 32 32" width="32"
	xmlns="http://www.w3.org/2000/svg">
	<defs>
		<filter filterUnits="objectBoundingBox" height="111.7%" id="a" width="111.7%" x="-5.8%"
			y="-4.2%">
			<feOffset dy=".5" in="SourceAlpha" result="shadowOffsetOuter1" />
			<feGaussianBlur in="shadowOffsetOuter1" result="shadowBlurOuter1" stdDeviation=".5" />
			<feComposite in="shadowBlurOuter1" in2="SourceAlpha" operator="out"
				result="shadowBlurOuter1" />
			<feColorMatrix in="shadowBlurOuter1"
				values="0 0 0 0 0 0 0 0 0 0 0 0 0 0 0 0 0 0 0.199473505 0" />
		</filter>
		<filter id="d">
			<feColorMatrix in="SourceGraphic"
				values="0 0 0 0 1.000000 0 0 0 0 1.000000 0 0 0 0 1.000000 0 0 0 1.000000 0" />
		</filter>
		<filter filterUnits="objectBoundingBox" height="193.8%" id="e" width="131.2%" x="-15.6%"
			y="-46.9%">
			<feOffset dy=".5" in="SourceAlpha" result="shadowOffsetOuter1" />
			<feGaussianBlur in="shadowOffsetOuter1" result="shadowBlurOuter1" stdDeviation=".5" />
			<feColorMatrix in="shadowBlurOuter1"
				result="shadowMatrixOuter1" values="0 0 0 0 0 0 0 0 0 0 0 0 0 0 0 0 0 0 0.204257246 0" />
			<feMerge>
				<feMergeNode in="shadowMatrixOuter1" />
				<feMergeNode in="SourceGraphic" />
			</feMerge>
		</filter>
		<linearGradient id="c" x1="50%" x2="50%" y1="0%" y2="100%">
			<stop offset="0%" stop-color="#FFF" stop-opacity=".5" />
			<stop offset="100%" stop-opacity=".5" />
		</linearGradient>
		<circle cx="16" cy="15" id="b" r="15" />
	</defs>
	<g fill="none" fill-rule="evenodd">
		<use fill="#000" filter="url(#a)" xlink:href="#b" />
		<use fill="#101010" xlink:href="#b" />
		<use style="mix-blend-mode:soft-light" fill="url(#c)" xlink:href="#b" />
		<circle cx="16" cy="15" r="14.5" stroke="#000" stroke-linejoin="square"
			stroke-opacity=".097" />
		<g filter="url(#d)">
			<g fill="#FFF" fill-rule="nonzero" filter="url(#e)" transform="translate(4 11)">
				<path
					d="M12.057 5.776L10.027.178H8.3v7.323h1.245V2.342l1.884 5.159h1.224l1.882-5.159v5.159h1.276V.178h-1.725zM3.671 0C1.423 0 0 1.695 0 3.845c0 2.149 1.423 3.84 3.671 3.84 2.248 0 3.674-1.679 3.674-3.84C7.345 1.683 5.922 0 3.67 0zm0 6.383c-1.433 0-2.29-1.078-2.29-2.533 0-1.456.857-2.541 2.29-2.541s2.293 1.088 2.293 2.536c0 1.447-.858 2.538-2.293 2.538zm16.467-1.547h2.102c-.124 1.068-.9 1.57-1.894 1.57-1.423 0-2.216-1.047-2.216-2.554 0-1.413.699-2.573 2.186-2.573.972 0 1.758.496 1.842 1.329h1.39C23.36.934 22.083.002 20.358.002c-2.449 0-3.59 1.884-3.59 3.892 0 2.157 1.32 3.788 3.37 3.788 1.202 0 1.874-.556 2.144-1.026v.837h1.266V3.577h-3.41v1.26z" />
			</g>
		</g>
	</g>
</svg>
