<svg xmlns:xlink="http://www.w3.org/1999/xlink" height="32" viewBox="0 0 32 32" width="32"
	xmlns="http://www.w3.org/2000/svg">
	<defs>
		<filter filterUnits="objectBoundingBox" height="111.7%" id="a" width="111.7%" x="-5.8%"
			y="-4.2%">
			<feOffset dy=".5" in="SourceAlpha" result="shadowOffsetOuter1" />
			<feGaussianBlur in="shadowOffsetOuter1" result="shadowBlurOuter1" stdDeviation=".5" />
			<feComposite in="shadowBlurOuter1" in2="SourceAlpha" operator="out"
				result="shadowBlurOuter1" />
			<feColorMatrix in="shadowBlurOuter1"
				values="0 0 0 0 0 0 0 0 0 0 0 0 0 0 0 0 0 0 0.199473505 0" />
		</filter>
		<filter id="d">
			<feColorMatrix in="SourceGraphic"
				values="0 0 0 0 1.000000 0 0 0 0 1.000000 0 0 0 0 1.000000 0 0 0 1.000000 0" />
		</filter>
		<filter filterUnits="objectBoundingBox" height="141.7%" id="e" width="137.5%" x="-18.8%"
			y="-20.8%">
			<feOffset dy=".5" in="SourceAlpha" result="shadowOffsetOuter1" />
			<feGaussianBlur in="shadowOffsetOuter1" result="shadowBlurOuter1" stdDeviation=".5" />
			<feColorMatrix in="shadowBlurOuter1"
				result="shadowMatrixOuter1" values="0 0 0 0 0 0 0 0 0 0 0 0 0 0 0 0 0 0 0.204257246 0" />
			<feMerge>
				<feMergeNode in="shadowMatrixOuter1" />
				<feMergeNode in="SourceGraphic" />
			</feMerge>
		</filter>
		<linearGradient id="c" x1="50%" x2="50%" y1="0%" y2="100%">
			<stop offset="0%" stop-color="#FFF" stop-opacity=".5" />
			<stop offset="100%" stop-opacity=".5" />
		</linearGradient>
		<circle cx="16" cy="15" id="b" r="15" />
	</defs>
	<g fill="none" fill-rule="evenodd">
		<use fill="#000" filter="url(#a)" xlink:href="#b" />
		<use fill="#5F45BA" xlink:href="#b" />
		<use style="mix-blend-mode:soft-light" fill="url(#c)" xlink:href="#b" />
		<circle cx="16" cy="15" r="14.5" stroke="#000" stroke-linejoin="square"
			stroke-opacity=".097" />
		<g filter="url(#d)">
			<g fill="#FFF" fill-rule="nonzero" filter="url(#e)" transform="translate(5.25 6.5)">
				<path
					d="M5.193 1.66A1.099 1.099 0 114.81.155c.521.31.693.983.383 1.505m-3.75-.488A.777.777 0 111.173.11c.368.22.49.695.27 1.063m10.439 15.899A8.549 8.549 0 109.757.107a7.088 7.088 0 00-2.089.524c-.775.38-1.275 1.013-1.275 1.86 0 1.1.892 1.994 1.994 1.994.184 0 .821-.202.973-.254a4.606 4.606 0 016.114 4.644 4.608 4.608 0 01-8.447 2.246v.001c-.92-1.205-.708-3.131-.709-3.156a1.997 1.997 0 00-3.922-.451c-.045.167-.068.656-.061.721a8.547 8.547 0 009.547 8.836M4.05 4.71a1.424 1.424 0 11-.498-1.952c.676.402.898 1.276.497 1.952" />
			</g>
		</g>
	</g>
</svg>
