<svg xmlns:xlink="http://www.w3.org/1999/xlink" height="32" viewBox="0 0 32 32" width="32"
	xmlns="http://www.w3.org/2000/svg">
	<defs>
		<linearGradient id="c" x1="50%" x2="50%" y1="0%" y2="100%">
			<stop offset="0%" stop-color="#FFF" stop-opacity=".5" />
			<stop offset="100%" stop-opacity=".5" />
		</linearGradient>
		<filter filterUnits="objectBoundingBox" height="111.7%" id="a" width="111.7%" x="-5.8%"
			y="-4.2%">
			<feOffset dy=".5" in="SourceAlpha" result="shadowOffsetOuter1" />
			<feGaussianBlur in="shadowOffsetOuter1" result="shadowBlurOuter1" stdDeviation=".5" />
			<feComposite in="shadowBlurOuter1" in2="SourceAlpha" operator="out"
				result="shadowBlurOuter1" />
			<feColorMatrix in="shadowBlurOuter1"
				values="0 0 0 0 0 0 0 0 0 0 0 0 0 0 0 0 0 0 0.199473505 0" />
		</filter>
		<circle cx="16" cy="15" id="b" r="15" />
	</defs>
	<g fill="none" fill-rule="evenodd">
		<use fill="#000" filter="url(#a)" xlink:href="#b" />
		<use fill="#66F9A1" xlink:href="#b" />
		<use style="mix-blend-mode:soft-light" fill="url(#c)" xlink:href="#b" />
		<circle cx="16" cy="15" r="14.5" stroke="#000" stroke-linejoin="square"
			stroke-opacity=".097" />
		<path
			d="M9.925 18.687a.59.59 0 01.415-.17h14.366a.29.29 0 01.207.497l-2.838 2.815a.59.59 0 01-.415.171H7.294a.291.291 0 01-.207-.498l2.838-2.815zm0-10.517A.59.59 0 0110.34 8h14.366c.261 0 .392.314.207.498l-2.838 2.815a.59.59 0 01-.415.17H7.294a.291.291 0 01-.207-.497L9.925 8.17zm12.15 5.225a.59.59 0 00-.415-.17H7.294a.291.291 0 00-.207.498l2.838 2.815c.11.109.26.17.415.17h14.366a.291.291 0 00.207-.498l-2.838-2.815z"
			fill="#FFF" fill-rule="nonzero" />
	</g>
</svg>
