<svg xmlns:xlink="http://www.w3.org/1999/xlink" height="32" viewBox="0 0 32 32" width="32"
	xmlns="http://www.w3.org/2000/svg">
	<defs>
		<filter filterUnits="objectBoundingBox" height="111.7%" id="a" width="111.7%" x="-5.8%"
			y="-4.2%">
			<feOffset dy=".5" in="SourceAlpha" result="shadowOffsetOuter1" />
			<feGaussianBlur in="shadowOffsetOuter1" result="shadowBlurOuter1" stdDeviation=".5" />
			<feComposite in="shadowBlurOuter1" in2="SourceAlpha" operator="out"
				result="shadowBlurOuter1" />
			<feColorMatrix in="shadowBlurOuter1"
				values="0 0 0 0 0 0 0 0 0 0 0 0 0 0 0 0 0 0 0.199473505 0" />
		</filter>
		<filter id="d">
			<feColorMatrix in="SourceGraphic"
				values="0 0 0 0 1.000000 0 0 0 0 1.000000 0 0 0 0 1.000000 0 0 0 1.000000 0" />
		</filter>
		<filter filterUnits="objectBoundingBox" height="225%" id="e" width="131.2%" x="-15.6%"
			y="-62.5%">
			<feOffset dy=".5" in="SourceAlpha" result="shadowOffsetOuter1" />
			<feGaussianBlur in="shadowOffsetOuter1" result="shadowBlurOuter1" stdDeviation=".5" />
			<feColorMatrix in="shadowBlurOuter1"
				result="shadowMatrixOuter1" values="0 0 0 0 0 0 0 0 0 0 0 0 0 0 0 0 0 0 0.204257246 0" />
			<feMerge>
				<feMergeNode in="shadowMatrixOuter1" />
				<feMergeNode in="SourceGraphic" />
			</feMerge>
		</filter>
		<linearGradient id="c" x1="50%" x2="50%" y1="0%" y2="100%">
			<stop offset="0%" stop-color="#FFF" stop-opacity=".5" />
			<stop offset="100%" stop-opacity=".5" />
		</linearGradient>
		<circle cx="16" cy="15" id="b" r="15" />
	</defs>
	<g fill="none" fill-rule="evenodd">
		<use fill="#000" filter="url(#a)" xlink:href="#b" />
		<use fill="#7324F0" xlink:href="#b" />
		<use style="mix-blend-mode:soft-light" fill="url(#c)" xlink:href="#b" />
		<circle cx="16" cy="15" r="14.5" stroke="#000" stroke-linejoin="square"
			stroke-opacity=".097" />
		<g filter="url(#d)">
			<g fill="#FFF" fill-rule="nonzero" filter="url(#e)" transform="translate(4 12)">
				<path
					d="M23.675.462V0a3.004 3.004 0 00-2.99 2.784A2.996 2.996 0 0017.705 0v.462A2.538 2.538 0 0120.243 3a2.531 2.531 0 01-2.538 2.538V6a3.004 3.004 0 002.99-2.784A2.997 2.997 0 0023.685 6v-.462A2.538 2.538 0 0121.148 3 2.53 2.53 0 0123.675.462zM7.643 6v-.344L7.633 3H7.19v3m6.453-6c-1.653 0-3 1.348-3 3s1.347 3 3 3a3 3 0 100-6zm0 5.538a2.538 2.538 0 110-5.075A2.538 2.538 0 0116.18 3a2.531 2.531 0 01-2.537 2.538zM5.538 0c-1.653 0-3 1.348-3 3A2.544 2.544 0 010 5.538V6c1.652 0 3-1.348 3-3A2.544 2.544 0 015.538.462h3.855V0H5.538z" />
			</g>
		</g>
	</g>
</svg>
