<svg xmlns:xlink="http://www.w3.org/1999/xlink" height="32" viewBox="0 0 32 32" width="32"
	xmlns="http://www.w3.org/2000/svg">
	<defs>
		<linearGradient id="c" x1="50%" x2="50%" y1="0%" y2="100%">
			<stop offset="0%" stop-color="#FFF" stop-opacity=".5" />
			<stop offset="100%" stop-opacity=".5" />
		</linearGradient>
		<filter filterUnits="objectBoundingBox" height="111.7%" id="a" width="111.7%" x="-5.8%"
			y="-4.2%">
			<feOffset dy=".5" in="SourceAlpha" result="shadowOffsetOuter1" />
			<feGaussianBlur in="shadowOffsetOuter1" result="shadowBlurOuter1" stdDeviation=".5" />
			<feComposite in="shadowBlurOuter1" in2="SourceAlpha" operator="out"
				result="shadowBlurOuter1" />
			<feColorMatrix in="shadowBlurOuter1"
				values="0 0 0 0 0 0 0 0 0 0 0 0 0 0 0 0 0 0 0.199473505 0" />
		</filter>
		<circle cx="15" cy="15" id="b" r="15" />
	</defs>
	<g fill="none">
		<g transform="translate(1)">
			<use fill="#000" filter="url(#a)" xlink:href="#b" />
			<use fill="#F60" fill-rule="evenodd" xlink:href="#b" />
			<use style="mix-blend-mode:soft-light" fill="url(#c)" fill-rule="evenodd"
				xlink:href="#b" />
			<circle cx="15" cy="15" r="14.5" stroke="#000" stroke-linejoin="square"
				stroke-opacity=".097" />
		</g>
		<g fill="#FFF">
			<path
				d="M27 15c0 6.076-4.924 11-11 11S5 21.076 5 15c0-2.458.808-4.727 2.166-6.557l1.796 1.796A8.453 8.453 0 007.5 15c0 4.684 3.807 8.49 8.49 8.49 4.684 0 8.491-3.806 8.491-8.49a8.5 8.5 0 00-1.46-4.76l1.795-1.797A10.872 10.872 0 0127 15" />
			<path
				d="M22.084 15A6.09 6.09 0 0116 21.084 6.09 6.09 0 019.916 15a6.09 6.09 0 01.799-3.016L16 17.269l5.285-5.285c.524.92.8 1.959.8 3.016" />
			<path
				d="M23.193 6.681L16 13.866 10.517 8.39l-1.71-1.71A10.915 10.915 0 0116 4c2.75 0 5.26 1.005 7.193 2.681" />
		</g>
	</g>
</svg>
