<svg xmlns:xlink="http://www.w3.org/1999/xlink" height="32" viewBox="0 0 32 32"
	width="32" xmlns="http://www.w3.org/2000/svg">
	<defs>
		<filter filterUnits="objectBoundingBox" height="111.7%" id="a" width="111.7%" x="-5.8%"
			y="-4.2%">
			<feOffset dy=".5" in="SourceAlpha" result="shadowOffsetOuter1" />
			<feGaussianBlur in="shadowOffsetOuter1" result="shadowBlurOuter1" stdDeviation=".5" />
			<feComposite in="shadowBlurOuter1" in2="SourceAlpha" operator="out"
				result="shadowBlurOuter1" />
			<feColorMatrix in="shadowBlurOuter1"
				values="0 0 0 0 0 0 0 0 0 0 0 0 0 0 0 0 0 0 0.199473505 0" />
		</filter>
		<filter filterUnits="objectBoundingBox" height="117.5%" id="d" width="125%" x="-12.5%"
			y="-6.2%">
			<feOffset dy=".5" in="SourceAlpha" result="shadowOffsetOuter1" />
			<feGaussianBlur in="shadowOffsetOuter1" result="shadowBlurOuter1" stdDeviation=".5" />
			<feColorMatrix in="shadowBlurOuter1" result="shadowMatrixOuter1"
				values="0 0 0 0 0 0 0 0 0 0 0 0 0 0 0 0 0 0 0.204257246 0" />
			<feMerge>
				<feMergeNode in="shadowMatrixOuter1" />
				<feMergeNode in="SourceGraphic" />
			</feMerge>
		</filter>
		<linearGradient id="c" x1="50%" x2="50%" y1="0%" y2="100%">
			<stop offset="0%" stop-color="#FFF" stop-opacity=".5" />
			<stop offset="100%" stop-opacity=".5" />
		</linearGradient>
		<circle cx="16" cy="15" id="b" r="15" />
	</defs>
	<g fill="none">
		<use fill="#000" filter="url(#a)" xlink:href="#b" />
		<use fill="#49C1BF" fill-rule="evenodd" xlink:href="#b" />
		<use style="mix-blend-mode:soft-light" fill="url(#c)" fill-rule="evenodd" xlink:href="#b" />
		<circle cx="16" cy="15" r="14.5" stroke="#000" stroke-opacity=".097" />
		<g fill="#FFF" filter="url(#d)" transform="translate(9 5)">
			<path d="M0 1.281l11.114 5.383 2.845-1.282L2.891 0z" fill-opacity=".304" />
			<path d="M11.114 6.651l2.845-1.281v2.865l-2.845 1.281V6.651zm0 13.284v-8.937l2.845-1.295v8.951l-2.845 1.281z"
				fill-opacity=".646" />
			<path
				d="M0 1.284v2.897l7.693 3.737L0 11.728v2.856l11.114 5.373v-2.874l-7.548-3.671 7.548-3.881V6.666z" />
		</g>
	</g>
</svg>
